<svg width="21" height="21" fill="none" xmlns="http://www.w3.org/2000/svg"><g clip-path="url(#clip0)" fill="#fff"><path d="M14.155 0h-7.53A6.275 6.275 0 00.353 6.274v7.53a6.275 6.275 0 006.274 6.274h7.53a6.275 6.275 0 006.273-6.274v-7.53A6.275 6.275 0 0014.155 0zm4.392 13.803a4.397 4.397 0 01-4.392 4.392h-7.53a4.397 4.397 0 01-4.391-4.392V6.274a4.397 4.397 0 014.392-4.392h7.53a4.397 4.397 0 014.391 4.392v7.53z"/><path d="M10.39 5.02a5.02 5.02 0 10.001 10.039 5.02 5.02 0 000-10.04zm0 8.156a3.142 3.142 0 01-3.137-3.137 3.14 3.14 0 013.138-3.137 3.14 3.14 0 013.137 3.137 3.142 3.142 0 01-3.137 3.137zm5.396-7.864a.669.669 0 100-1.338.669.669 0 000 1.338z"/></g><defs><clipPath id="clip0"><path fill="#fff" transform="translate(.352)" d="M0 0h20.078v20.078H0z"/></clipPath></defs></svg>