<svg width="13" height="21" fill="none" xmlns="http://www.w3.org/2000/svg"><path fill-rule="evenodd" clip-rule="evenodd" d="M6.586 7.332a2.256 2.256 0 100-4.512 2.256 2.256 0 000 4.512zm0 2.82A5.076 5.076 0 106.586 0a5.076 5.076 0 000 10.152z" fill="#fff"/><path d="M5.293 14.524c-1.352-.263-2.673-.92-4.06-1.86-.644-.438-.76-1.329-.29-1.948.472-.62 1.352-.733 2-.302 1.54 1.025 2.66 1.419 3.664 1.419 1 0 2.105-.391 3.614-1.406.646-.435 1.527-.328 2.002.289.475.616.364 1.508-.278 1.948-1.381.949-2.703 1.609-4.064 1.867l3.051 3.051a1.41 1.41 0 11-1.955 2.02l-.007.006-2.387-2.387-2.375 2.375a1.41 1.41 0 11-2.002-1.978l-.004-.004 3.09-3.09z" fill="#fff"/></svg>