<svg width="21" height="21" fill="none" xmlns="http://www.w3.org/2000/svg"><g clip-path="url(#clip0)"><path d="M20.274 3.814a8.581 8.581 0 01-2.372.65 4.093 4.093 0 001.811-2.276 8.226 8.226 0 01-2.61.997A4.115 4.115 0 009.983 6c0 .326.028.64.095.938-3.422-.167-6.45-1.807-8.484-4.305a4.144 4.144 0 00-.563 2.08c0 1.426.734 2.69 1.828 3.421A4.065 4.065 0 011 7.627v.045c0 2 1.427 3.662 3.298 4.045-.335.091-.7.135-1.079.135a3.64 3.64 0 01-.78-.07c.534 1.63 2.047 2.828 3.847 2.867a8.27 8.27 0 01-5.104 1.756 7.61 7.61 0 01-.985-.057 11.588 11.588 0 006.315 1.848c7.574 0 11.715-6.275 11.715-11.713 0-.182-.006-.358-.015-.532a8.21 8.21 0 002.063-2.137z" fill="#fff"/></g><defs><clipPath id="clip0"><path fill="#fff" transform="translate(.196)" d="M0 0h20.078v20.078H0z"/></clipPath></defs></svg>