<svg width="21" height="21" fill="none" xmlns="http://www.w3.org/2000/svg"><g clip-path="url(#clip0)"><path d="M20.054 14.529c-.054-.09-.388-.816-1.994-2.307-1.682-1.56-1.456-1.307.57-4.007 1.233-1.644 1.727-2.648 1.572-3.077-.147-.41-1.054-.301-1.054-.301l-3.017.017s-.223-.03-.39.07c-.162.097-.266.323-.266.323s-.478 1.273-1.116 2.355c-1.344 2.282-1.882 2.403-2.102 2.26-.51-.33-.383-1.327-.383-2.035 0-2.212.335-3.134-.654-3.373-.328-.079-.57-.132-1.409-.14-1.077-.012-1.989.003-2.505.256-.344.168-.608.543-.446.564.2.027.65.122.89.448.31.42.3 1.367.3 1.367s.177 2.604-.416 2.928c-.408.222-.966-.231-2.165-2.303A19.313 19.313 0 014.391 5.34s-.09-.218-.248-.335a1.253 1.253 0 00-.465-.187L.81 4.836s-.43.012-.588.2c-.14.166-.011.51-.011.51S2.456 10.8 4.998 13.45c2.333 2.428 4.981 2.269 4.981 2.269h1.2s.363-.04.547-.24c.17-.183.165-.527.165-.527s-.024-1.61.724-1.848c.736-.233 1.683 1.557 2.685 2.246.758.52 1.334.406 1.334.406l2.682-.037s1.403-.087.738-1.19z" fill="#fff"/></g><defs><clipPath id="clip0"><path fill="#fff" transform="translate(.155)" d="M0 0h20.078v20.078H0z"/></clipPath></defs></svg>