<svg width="21" height="21" fill="none" xmlns="http://www.w3.org/2000/svg"><g clip-path="url(#clip0)"><path d="M19.224 4.467C18.68 3.5 18.09 3.32 16.886 3.253c-1.203-.082-4.226-.116-6.845-.116-2.623 0-5.648.034-6.849.114-1.2.07-1.793.246-2.342 1.216C.289 5.435 0 7.101 0 10.035v.01c0 2.921.289 4.6.85 5.558.55.969 1.14 1.144 2.341 1.226 1.202.07 4.227.112 6.85.112 2.62 0 5.642-.042 6.846-.11 1.203-.082 1.794-.258 2.339-1.227.566-.957.852-2.636.852-5.558v-.01c0-2.935-.286-4.601-.854-5.569zM7.53 13.803V6.274l6.274 3.765-6.274 3.764z" fill="#fff"/></g><defs><clipPath id="clip0"><path fill="#fff" d="M0 0h20.078v20.078H0z"/></clipPath></defs></svg>