<svg width="238" height="50" fill="none" xmlns="http://www.w3.org/2000/svg"><path d="M17.767 22.16l1.149 5.337h8.411l2.832-4.967-2.298 13.053h11.16L45.259.2H33.523l-8.206 14.08L22.075.2H10.463L4.227 35.583h11.16l2.38-13.423zm57.239 13.423h13.869l6.36-8.086 4.308 8.086h11.94l-9.232-17.158L116.735.2h-13.869l-6.113 7.758L92.65.2H80.71l8.944 16.788-10.422 13.218-4.226 5.377zm-21.583 0l3.488-8.086h5.58l.698 8.086h11.325l-.78-5.377L69.262.2h-9.766L41.812 35.583h11.611zm5.991-14.49l2.298-5.295.37 5.295h-2.668zm66.43 18.348l4.513-25.367h-11.16l-6.237 35.3h25.193l1.765-9.933h-14.074zm22.363-25.367l-6.237 35.3h11.16l6.237-35.3h-11.16zm34.138 0l-2.626 14.982-8.001-14.982h-8.535l-6.237 35.3h11.161l2.626-14.817 7.919 14.818h8.617l6.237-35.3h-11.161zm37.503 9.934l1.724-9.934h-24.25l-6.237 35.3h24.332l1.723-9.933h-13.13l.574-3.325h9.356l1.682-9.358h-9.355l.451-2.75h13.13zM3.488 39.441L0 49.375h109.062l1.765-9.934H3.487zm116.366-29.225l1.764-9.934h104.508l-3.857 9.934H119.854zm113.611-8.637c.482 0 .964.096 1.446.288.434.193.82.433 1.205.77.338.336.627.72.771 1.2a3.5 3.5 0 01.29 1.443c0 .672-.145 1.297-.482 1.826a3.63 3.63 0 01-1.35 1.346 3.6 3.6 0 01-1.831.48c-.675 0-1.302-.144-1.832-.48a3.62 3.62 0 01-1.349-1.346 3.57 3.57 0 01-.482-1.826c0-.625.144-1.298.482-1.827a3.62 3.62 0 011.349-1.345c.482-.385 1.109-.53 1.783-.53zm0 .72c-.53 0-1.012.145-1.494.385a2.79 2.79 0 00-1.06 1.058c-.289.432-.386.96-.386 1.49 0 .528.145 1.009.386 1.49.289.432.626.816 1.108 1.057.434.24.964.384 1.495.384.53 0 1.06-.144 1.494-.384.433-.24.819-.625 1.06-1.058a3.11 3.11 0 00.386-1.49c0-.528-.145-1.057-.386-1.49a2.801 2.801 0 00-1.06-1.057c-.531-.24-1.012-.384-1.543-.384zm-.867 4.903h-.82V3.309h1.832c.289 0 .53.048.723.144.193.096.337.24.434.385.096.144.144.384.144.576a.976.976 0 01-.289.721 1.312 1.312 0 01-.771.385c.193.048.289.144.434.288.096.144.241.337.433.625l.482.769h-.964l-.337-.625c-.144-.288-.289-.48-.385-.625-.097-.144-.193-.24-.338-.288a.908.908 0 00-.385-.096h-.193v1.634zm0-3.268V4.99h.626c.29 0 .531-.048.675-.096a.504.504 0 00.241-.432.436.436 0 00-.193-.385c-.144-.096-.337-.144-.626-.144h-.723z" fill="#fff"/></svg>