<svg width="24" height="24" viewBox="0 0 24 24" fill="none" xmlns="http://www.w3.org/2000/svg">
<path fill-rule="evenodd" clip-rule="evenodd" d="M12 24C18.6274 24 24 18.6274 24 12C24 5.37258 18.6274 0 12 0C5.37258 0 0 5.37258 0 12C0 18.6274 5.37258 24 12 24ZM15.3386 6.49578H11.0632L10.414 13.3364H13.2643L15.3386 6.49578ZM9.79646 17.2318C10.1659 17.5696 10.641 17.7385 11.2216 17.7385C11.8444 17.7385 12.367 17.5432 12.7892 17.1526C13.2115 16.7515 13.4226 16.2606 13.4226 15.68C13.4226 15.1944 13.2379 14.7879 12.8684 14.4607C12.4989 14.1334 12.0239 13.9698 11.4433 13.9698C10.8099 13.9698 10.2821 14.1598 9.8598 14.5399C9.4481 14.9199 9.24224 15.4055 9.24224 15.9967C9.24224 16.4823 9.42698 16.894 9.79646 17.2318Z" fill="white"/>
</svg>
