<svg width="21" height="21" viewBox="0 0 21 21" fill="none" xmlns="http://www.w3.org/2000/svg">
<g clip-path="url(#clip0)">
<path d="M14.1551 0H6.62589C3.16121 0 0.351562 2.80964 0.351562 6.27433V13.8035C0.351562 17.2682 3.16121 20.0778 6.62589 20.0778H14.1551C17.6198 20.0778 20.4294 17.2682 20.4294 13.8035V6.27433C20.4294 2.80964 17.6198 0 14.1551 0ZM18.5471 13.8035C18.5471 16.2254 16.577 18.1955 14.1551 18.1955H6.62589C4.204 18.1955 2.23386 16.2254 2.23386 13.8035V6.27433C2.23386 3.85244 4.204 1.8823 6.62589 1.8823H14.1551C16.577 1.8823 18.5471 3.85244 18.5471 6.27433V13.8035Z" fill="white"/>
<path d="M10.3906 5.01945C7.61856 5.01945 5.37109 7.26692 5.37109 10.0389C5.37109 12.8109 7.61856 15.0584 10.3906 15.0584C13.1626 15.0584 15.41 12.8109 15.41 10.0389C15.41 7.26692 13.1626 5.01945 10.3906 5.01945ZM10.3906 13.1761C8.66135 13.1761 7.25339 11.7681 7.25339 10.0389C7.25339 8.30846 8.66135 6.90175 10.3906 6.90175C12.1198 6.90175 13.5277 8.30846 13.5277 10.0389C13.5277 11.7681 12.1198 13.1761 10.3906 13.1761Z" fill="white"/>
<path d="M15.786 5.31184C16.1554 5.31184 16.4549 5.0124 16.4549 4.64301C16.4549 4.27362 16.1554 3.97417 15.786 3.97417C15.4166 3.97417 15.1172 4.27362 15.1172 4.64301C15.1172 5.0124 15.4166 5.31184 15.786 5.31184Z" fill="white"/>
</g>
<defs>
<clipPath id="clip0">
<rect width="20.0778" height="20.0778" fill="white" transform="translate(0.351562)"/>
</clipPath>
</defs>
</svg>
