<svg width="13" height="21" viewBox="0 0 13 21" fill="none" xmlns="http://www.w3.org/2000/svg">
<path fill-rule="evenodd" clip-rule="evenodd" d="M6.58605 7.3317C7.83195 7.3317 8.84195 6.32169 8.84195 5.07579C8.84195 3.82989 7.83195 2.81988 6.58605 2.81988C5.34014 2.81988 4.33014 3.82989 4.33014 5.07579C4.33014 6.32169 5.34014 7.3317 6.58605 7.3317ZM6.58605 10.1516C9.38933 10.1516 11.6618 7.87907 11.6618 5.07579C11.6618 2.27251 9.38933 0 6.58605 0C3.78276 0 1.51026 2.27251 1.51026 5.07579C1.51026 7.87907 3.78276 10.1516 6.58605 10.1516Z" fill="white"/>
<path d="M5.29265 14.5241C3.94062 14.2607 2.61994 13.604 1.23347 12.6631C0.58915 12.2258 0.47216 11.3353 0.943541 10.7155C1.41492 10.0957 2.29513 9.98254 2.94327 10.4141C4.48211 11.4389 5.60223 11.833 6.6073 11.8327C7.60684 11.8324 8.71153 11.4418 10.2206 10.4265C10.8667 9.99183 11.7476 10.0988 12.2231 10.7155C12.6985 11.3322 12.5875 12.2236 11.9455 12.6642C10.5638 13.6125 9.24245 14.2726 7.88111 14.5312L10.9321 17.5821C11.2441 17.8407 11.4429 18.2312 11.4429 18.6681C11.4429 19.4467 10.8117 20.0778 10.0332 20.0778C9.61263 20.0778 9.2351 19.8937 8.97681 19.6016L8.97021 19.6082L6.58333 17.2213L4.20821 19.5964C3.94982 19.8915 3.57032 20.0778 3.14731 20.0778C2.36876 20.0778 1.73761 19.4467 1.73761 18.6681C1.73761 18.2511 1.91869 17.8764 2.20651 17.6183L2.20249 17.6142L5.29265 14.5241Z" fill="white"/>
</svg>
