<svg width="21" height="21" viewBox="0 0 21 21" fill="none" xmlns="http://www.w3.org/2000/svg">
<g clip-path="url(#clip0)">
<path d="M20.2741 3.81353C19.5275 4.14105 18.7319 4.35814 17.9024 4.46355C18.7557 3.95408 19.407 3.15347 19.7132 2.18848C18.9176 2.66282 18.0392 2.99787 17.1031 3.18484C16.3477 2.38048 15.271 1.88229 14.0964 1.88229C11.8176 1.88229 9.98298 3.73197 9.98298 5.99951C9.98298 6.32577 10.0106 6.63949 10.0784 6.93815C6.65633 6.77125 3.62835 5.13114 1.59421 2.6327C1.23908 3.24884 1.03077 3.95408 1.03077 4.71327C1.03077 6.1388 1.76487 7.40245 2.85911 8.13403C2.1978 8.12148 1.54903 7.92949 0.999403 7.62707C0.999403 7.63962 0.999403 7.65593 0.999403 7.67224C0.999403 9.6725 2.42618 11.3339 4.29719 11.7167C3.96214 11.8083 3.59697 11.8522 3.218 11.8522C2.95448 11.8522 2.68845 11.8371 2.43873 11.7819C2.97205 13.412 4.48542 14.6104 6.28489 14.6493C4.88447 15.7448 3.10632 16.4048 1.18136 16.4048C0.8438 16.4048 0.520044 16.3898 0.196289 16.3484C2.01961 17.5242 4.18049 18.1955 6.51077 18.1955C14.0851 18.1955 18.2262 11.9212 18.2262 6.48263C18.2262 6.30067 18.2199 6.12499 18.2111 5.95057C19.0281 5.37082 19.7145 4.64676 20.2741 3.81353Z" fill="white"/>
</g>
<defs>
<clipPath id="clip0">
<rect width="20.0778" height="20.0778" fill="white" transform="translate(0.196289)"/>
</clipPath>
</defs>
</svg>
