<svg width="21" height="21" viewBox="0 0 21 21" fill="none" xmlns="http://www.w3.org/2000/svg">
<g clip-path="url(#clip0)">
<path d="M20.0541 14.5289C20.0002 14.4385 19.6664 13.7132 18.06 12.2223C16.3784 10.6611 16.6043 10.9146 18.6298 8.21519C19.8634 6.5712 20.3566 5.56723 20.2022 5.13804C20.0554 4.72892 19.1481 4.83685 19.1481 4.83685L16.1311 4.85442C16.1311 4.85442 15.9078 4.8243 15.7409 4.92344C15.579 5.02133 15.4748 5.24722 15.4748 5.24722C15.4748 5.24722 14.9967 6.51975 14.3591 7.60152C13.0151 9.88429 12.4767 10.0048 12.2571 9.86295C11.7463 9.5329 11.8743 8.53521 11.8743 7.82741C11.8743 5.61492 12.2094 4.69253 11.2205 4.45408C10.8917 4.37502 10.6508 4.32231 9.81119 4.31353C8.73443 4.30223 7.82208 4.31729 7.30629 4.56954C6.96244 4.73771 6.69764 5.11294 6.85953 5.13427C7.05907 5.16063 7.51085 5.256 7.75055 5.58229C8.06052 6.0027 8.04923 6.94894 8.04923 6.94894C8.04923 6.94894 8.22743 9.55298 7.63384 9.87676C7.22598 10.0989 6.66752 9.64585 5.46904 7.57391C4.85536 6.51347 4.39103 5.34009 4.39103 5.34009C4.39103 5.34009 4.30193 5.12172 4.14255 5.00501C3.94929 4.8632 3.67822 4.81802 3.67822 4.81802L0.809386 4.83559C0.809386 4.83559 0.378936 4.84814 0.220811 5.03513C0.0802562 5.20204 0.209517 5.5459 0.209517 5.5459C0.209517 5.5459 2.45589 10.8004 4.99843 13.4496C7.33139 15.878 9.97935 15.7186 9.97935 15.7186H11.1791C11.1791 15.7186 11.5418 15.6784 11.7263 15.4789C11.8969 15.2957 11.8907 14.9518 11.8907 14.9518C11.8907 14.9518 11.8668 13.3417 12.6148 13.1045C13.3514 12.8711 14.2977 14.6607 15.3004 15.3496C16.0584 15.8704 16.6344 15.7562 16.6344 15.7562L19.3162 15.7186C19.3162 15.7186 20.7193 15.632 20.0541 14.5289Z" fill="white"/>
</g>
<defs>
<clipPath id="clip0">
<rect width="20.0778" height="20.0778" fill="white" transform="translate(0.155273)"/>
</clipPath>
</defs>
</svg>
