<svg width="21" height="21" viewBox="0 0 21 21" fill="none" xmlns="http://www.w3.org/2000/svg">
<g clip-path="url(#clip0)">
<path d="M19.2245 4.46732C18.6799 3.49856 18.0889 3.32037 16.8855 3.25261C15.6833 3.17104 12.6603 3.13716 10.0414 3.13716C7.41751 3.13716 4.39328 3.17104 3.19238 3.25135C1.99147 3.32037 1.39917 3.49731 0.849544 4.46732C0.288619 5.43482 0 7.10128 0 10.0352C0 10.0377 0 10.0389 0 10.0389C0 10.0414 0 10.0427 0 10.0427V10.0452C0 12.9665 0.288619 14.6455 0.849544 15.603C1.39917 16.5717 1.99022 16.7474 3.19112 16.829C4.39328 16.8993 7.41751 16.9407 10.0414 16.9407C12.6603 16.9407 15.6833 16.8993 16.8867 16.8302C18.0901 16.7487 18.6812 16.573 19.2258 15.6042C19.7917 14.6468 20.0778 12.9678 20.0778 10.0464C20.0778 10.0464 20.0778 10.0427 20.0778 10.0402C20.0778 10.0402 20.0778 10.0377 20.0778 10.0364C20.0778 7.10128 19.7917 5.43482 19.2245 4.46732ZM7.52919 13.8035V6.27432L13.8035 10.0389L7.52919 13.8035Z" fill="white"/>
</g>
<defs>
<clipPath id="clip0">
<rect width="20.0778" height="20.0778" fill="white"/>
</clipPath>
</defs>
</svg>
