<svg width="238" height="50" viewBox="0 0 238 50" fill="none" xmlns="http://www.w3.org/2000/svg">
<path d="M17.767 22.1604L18.9159 27.4965H27.3274L30.1586 22.5298L27.8608 35.5828H39.0215L45.2583 0.200195H33.5232L25.3169 14.2794L22.0754 0.200195H10.4634L4.22656 35.5828H15.3872L17.767 22.1604Z" fill="white"/>
<path d="M75.0059 35.5828H76.483H80.0528H88.8746L95.2345 27.4965L99.5428 35.5828H111.483L102.251 18.4251L116.735 0.200195H102.866L96.7527 7.9581L92.6495 0.200195H80.7093L89.6542 16.9885L79.2321 30.2057L75.0059 35.5828Z" fill="white"/>
<path d="M53.4235 35.5828L56.9112 27.4965H62.4915L63.1891 35.5828H70.9441H74.5138L73.7342 30.2057L69.2618 0.200195H59.4962L41.8115 35.5828H53.4235ZM59.4142 21.0932L61.7119 15.7981L62.0812 21.0932H59.4142Z" fill="white"/>
<path d="M125.844 39.4413L130.357 14.0742H119.197L112.96 49.3747H138.153L139.918 39.4413H125.844Z" fill="white"/>
<path d="M148.207 14.0742L141.97 49.3747H153.13L159.367 14.0742H148.207Z" fill="white"/>
<path d="M182.345 14.0742L179.719 29.0564L171.718 14.0742H163.183L156.946 49.3747H168.107L170.733 34.5567L178.652 49.3747H187.269L193.506 14.0742H182.345Z" fill="white"/>
<path d="M219.848 24.0076L221.572 14.0742H197.322L191.085 49.3747H215.417L217.14 39.4413H204.01L204.584 36.1165H213.94L215.622 26.7577H206.267L206.718 24.0076H219.848Z" fill="white"/>
<path d="M3.4877 39.4412L0 49.3746H109.062L110.827 39.4412H3.4877Z" fill="white"/>
<path d="M119.854 10.2157L121.618 0.282333H226.126L222.269 10.2157H119.854Z" fill="white"/>
<path d="M233.465 1.57892C233.947 1.57892 234.429 1.67504 234.911 1.86728C235.345 2.05952 235.731 2.29982 236.116 2.63624C236.454 2.97266 236.743 3.35714 236.887 3.83774C237.08 4.27028 237.177 4.75088 237.177 5.27954C237.177 5.95238 237.032 6.57716 236.695 7.10582C236.357 7.68254 235.923 8.11509 235.345 8.45151C234.767 8.78793 234.14 8.93211 233.514 8.93211C232.839 8.93211 232.212 8.78793 231.682 8.45151C231.104 8.11509 230.67 7.68254 230.333 7.10582C229.995 6.5291 229.851 5.90432 229.851 5.27954C229.851 4.65476 229.995 3.98192 230.333 3.45326C230.67 2.87654 231.104 2.444 231.682 2.10758C232.164 1.7231 232.791 1.57892 233.465 1.57892ZM233.465 2.29982C232.935 2.29982 232.453 2.444 231.971 2.6843C231.537 2.9246 231.152 3.30908 230.911 3.74162C230.622 4.17416 230.525 4.70282 230.525 5.23148C230.525 5.76014 230.67 6.24074 230.911 6.72134C231.2 7.15388 231.537 7.53836 232.019 7.77866C232.453 8.01897 232.983 8.16315 233.514 8.16315C234.044 8.16315 234.574 8.01897 235.008 7.77866C235.441 7.53836 235.827 7.15388 236.068 6.72134C236.309 6.2888 236.454 5.76014 236.454 5.23148C236.454 4.70282 236.309 4.17416 236.068 3.74162C235.827 3.30908 235.441 2.9246 235.008 2.6843C234.477 2.444 233.996 2.29982 233.465 2.29982ZM232.598 7.20194H231.778V3.30908H233.61C233.899 3.30908 234.14 3.35714 234.333 3.45326C234.526 3.54938 234.67 3.69356 234.767 3.83774C234.863 3.98192 234.911 4.22222 234.911 4.41446C234.911 4.70282 234.815 4.94312 234.622 5.13536C234.429 5.3276 234.188 5.47178 233.851 5.51984C234.044 5.5679 234.14 5.66402 234.285 5.8082C234.381 5.95238 234.526 6.14462 234.718 6.43298L235.2 7.20194H234.236L233.899 6.57716C233.755 6.2888 233.61 6.09656 233.514 5.95238C233.417 5.8082 233.321 5.71208 233.176 5.66402C233.08 5.61596 232.935 5.5679 232.791 5.5679H232.598V7.20194ZM232.598 3.93386V4.99118H233.224C233.514 4.99118 233.755 4.94312 233.899 4.89506C234.044 4.79894 234.14 4.65476 234.14 4.46252C234.14 4.31834 234.092 4.17416 233.947 4.07804C233.803 3.98192 233.61 3.93386 233.321 3.93386H232.598Z" fill="white"/>
</svg>
